<svg id="Layer_1" data-name="Layer 1" xmlns="http://www.w3.org/2000/svg" xmlns:xlink="http://www.w3.org/1999/xlink" viewBox="0 0 650.37 763.36"><defs><style>.cls-1{fill:#fff;}.cls-2{fill:#241f45;}.cls-3{fill:#e6bb0d;}.cls-4{fill:url(#linear-gradient);}.cls-5{font-size:72px;font-family:Bungee-Regular, Bungee;}</style><linearGradient id="linear-gradient" x1="700.85" y1="699.1" x2="299.15" y2="297.39" gradientUnits="userSpaceOnUse"><stop offset="0" stop-color="#f5d337"/><stop offset="1" stop-color="#fff889"/></linearGradient></defs><title>logo</title><path class="cls-1" d="M741.11,779.66c-29.13,0-55.35-18.52-66.23-45.9-9.19-1.75-18.41-3.57-27.39-5.34-48.59-9.59-98.84-19.5-147.63-19.5s-99,9.91-147.61,19.5c-8.7,1.71-17.63,3.47-26.54,5.17-10.84,27.49-37.08,46.07-66.3,46.07-39,0-71-32.59-71.55-72.81a82.33,82.33,0,0,1-.55-9.34V569.15c0-24.49,11.82-42.74,28.11-43.39,43.67-1.75,88.57-10.61,132-19.18,49.75-9.81,101.21-20,152.44-20h0c51.23,0,102.68,10.15,152.44,20,43.42,8.57,88.33,17.43,132,19.18,16.28.65,28.1,18.9,28.1,43.39V697.51q0,.69,0,1.38c.21,2.3.32,4.61.32,6.88C812.69,746.52,780.58,779.66,741.11,779.66Z" transform="translate(-174.81 -118.32)"/><path class="cls-1" d="M499.86,499.12c94.64,0,189.29,35.34,283.94,39.13,9,.36,16.1,14.12,16.1,30.9V697.51c0,.6,0,1.18,0,1.77a63.22,63.22,0,0,1,.34,6.49c0,33.91-26.45,61.39-59.08,61.39-26.92,0-49.62-18.73-56.74-44.33-61.5-11.49-123-26.41-184.51-26.41-61.22,0-122.44,14.78-183.66,26.25-7.07,25.69-29.81,44.49-56.79,44.49-32.53,0-58.92-27.33-59.06-61.11a69.53,69.53,0,0,1-.54-8.54V569.15c0-16.78,7.15-30.54,16.11-30.9,94.65-3.79,189.29-39.13,283.94-39.13m0-25h0c-52.45,0-104.51,10.27-154.86,20.2-44.94,8.87-87.38,17.24-130.08,18.95-23.24.93-40.11,24.43-40.11,55.88V697.51a94.1,94.1,0,0,0,.56,10.14,87,87,0,0,0,24.38,59,82.41,82.41,0,0,0,111.09,7.47,86.71,86.71,0,0,0,23.63-29.47c6.8-1.32,13.57-2.65,20.2-4,50.2-9.91,97.62-19.26,145.19-19.26s95,9.36,145.21,19.26c6.92,1.37,14,2.76,21.07,4.13a86.59,86.59,0,0,0,23.63,29.37,81.8,81.8,0,0,0,51.34,18c46.36,0,84.08-38.75,84.08-86.39,0-2.38-.1-4.81-.3-7.22,0-.32,0-.66,0-1V569.15c0-31.45-16.86-54.95-40.1-55.88-42.71-1.71-85.15-10.08-130.08-18.95-50.35-9.93-102.41-20.2-154.86-20.2Z" transform="translate(-174.81 -118.32)"/><path class="cls-2" d="M500,869.18a12.51,12.51,0,0,1-11.81-8.4l-.26-.74c-1.72-4.63-18.35-42.32-108.45-60.68-8.66-1.77-17.14-3.73-25.2-5.81A154.6,154.6,0,0,1,238.64,643.73V259.24a12.51,12.51,0,0,1,17-11.66c32.93,12.75,63.34,19.21,90.39,19.21,108.4,0,136.85-104,141.45-124.78l.28-1.3a3,3,0,0,1,.07-.32A12.51,12.51,0,0,1,500,130.83h.16a12.49,12.49,0,0,1,12.06,9.86l.3,1.38c4.58,20.77,33,124.72,141.43,124.72,27,0,57.46-6.46,90.39-19.21a12.51,12.51,0,0,1,17,11.66V643.73A154.6,154.6,0,0,1,645.72,793.55c-8.05,2.08-16.53,4-25.2,5.81-90.1,18.36-106.73,56-108.45,60.68l-.26.74A12.51,12.51,0,0,1,500,869.18ZM300.22,643.73a93,93,0,0,0,69.5,90.21c7,1.82,14.44,3.53,22.06,5.08,44.69,9.11,81,23.73,108.22,43.51,27.19-19.78,63.53-34.4,108.22-43.51,7.62-1.55,15-3.26,22.07-5.08a93,93,0,0,0,69.49-90.21V324.13A262.66,262.66,0,0,1,654,328.37c-36.14,0-69.29-8.5-98.52-25.26A197.5,197.5,0,0,1,500,255.42a197.5,197.5,0,0,1-55.43,47.69c-29.23,16.76-62.38,25.26-98.52,25.26a262.66,262.66,0,0,1-45.83-4.24Z" transform="translate(-174.81 -118.32)"/><path class="cls-1" d="M500,143.32l.3,1.38c4.34,19.69,34.79,134.59,153.65,134.59,26.87,0,58.28-5.87,94.91-20.05V643.73A142.15,142.15,0,0,1,642.59,781.45q-11.49,3-24.57,5.66c-94.58,19.28-114.4,59.61-117.72,68.72l-.3.85-.3-.85c-3.32-9.11-23.14-49.44-117.72-68.72q-13.1-2.67-24.57-5.66A142.15,142.15,0,0,1,251.14,643.73V259.24c36.64,14.18,68,20.05,94.91,20.05,118.84,0,149.31-114.91,153.65-134.59l.3-1.37h0M346.05,315.87a260,260,0,0,1-58.33-7.05V643.73A105.52,105.52,0,0,0,366.58,746c7.24,1.88,14.88,3.64,22.71,5.23,54.58,11.13,89,29.23,110.71,47.05,21.69-17.82,56.13-35.92,110.71-47.05,7.83-1.59,15.47-3.35,22.71-5.23a105.52,105.52,0,0,0,78.86-102.31V308.82A260,260,0,0,1,654,315.87c-72.22,0-122.62-35.83-154-81.34-31.33,45.51-81.73,81.34-153.95,81.34M500,118.32a25,25,0,0,0-24.36,19.39c0,.12-.06.25-.08.37l-.28,1.29c-4.29,19.35-30.5,114.92-129.23,114.92-25.5,0-54.39-6.18-85.88-18.37a25,25,0,0,0-34,23.32V643.73a167.11,167.11,0,0,0,125,161.92c8.28,2.14,17,4.14,25.85,6,83.81,17.09,98.19,50.12,99.19,52.69l.21.59a25,25,0,0,0,47.22,0l.21-.59c1-2.54,15.32-35.6,99.19-52.7,8.88-1.81,17.58-3.81,25.85-6a167.11,167.11,0,0,0,125-161.92V259.24a25,25,0,0,0-34-23.32c-31.49,12.19-60.38,18.37-85.88,18.37-98.72,0-124.94-95.55-129.23-114.91l-.28-1.32a25,25,0,0,0-24.36-19.74ZM346.05,340.87c38.35,0,73.59-9.06,104.74-26.92A206.87,206.87,0,0,0,500,274.54,206.87,206.87,0,0,0,549.21,314c31.15,17.86,66.39,26.92,104.74,26.92a262.44,262.44,0,0,0,33.33-2.19V643.73a80.52,80.52,0,0,1-60.13,78.11c-6.82,1.77-14,3.43-21.43,4.93-42.58,8.69-78,22.3-105.72,40.56-27.68-18.26-63.14-31.87-105.72-40.56-7.4-1.5-14.61-3.16-21.43-4.93a80.52,80.52,0,0,1-60.13-78.11v-305a262.44,262.44,0,0,0,33.33,2.19Z" transform="translate(-174.81 -118.32)"/><path class="cls-3" d="M654,279.29c-118.86,0-149.31-114.9-153.65-134.59l-.3-1.38h0l-.3,1.37c-4.34,19.68-34.81,134.59-153.65,134.59-26.88,0-58.27-5.87-94.91-20.05V643.73A142.15,142.15,0,0,0,357.41,781.45q11.49,3,24.57,5.66c94.58,19.28,114.4,59.61,117.72,68.71l.3.86.3-.86c3.32-9.1,23.14-49.43,117.72-68.71q13.1-2.67,24.57-5.66A142.15,142.15,0,0,0,748.86,643.73V259.24C712.23,273.42,680.82,279.29,654,279.29Zm58.33,364.44A105.52,105.52,0,0,1,633.42,746c-7.24,1.88-14.88,3.64-22.71,5.23-54.58,11.13-89,29.23-110.71,47.05-21.69-17.82-56.13-35.92-110.71-47.05-7.83-1.59-15.47-3.35-22.71-5.23a105.52,105.52,0,0,1-78.86-102.31V308.82a260,260,0,0,0,58.33,7.05c72.22,0,122.62-35.83,154-81.34,31.33,45.51,81.73,81.34,154,81.34a260,260,0,0,0,58.33-7.05Z" transform="translate(-174.81 -118.32)"/><path class="cls-4" d="M500,234.53c-31.33,45.51-81.73,81.34-153.95,81.34a260,260,0,0,1-58.33-7.05V643.73A105.52,105.52,0,0,0,366.58,746c7.24,1.88,14.88,3.64,22.71,5.23,54.58,11.13,89,29.23,110.71,47.05,21.69-17.82,56.13-35.92,110.71-47.05,7.83-1.59,15.47-3.35,22.71-5.23a105.52,105.52,0,0,0,78.86-102.31V308.82A260,260,0,0,1,654,315.87C581.73,315.87,531.33,280,500,234.53Z" transform="translate(-174.81 -118.32)"/><path class="cls-3" d="M799.85,699.28c0-.59,0-1.17,0-1.77V569.15c0-16.78-7.14-30.54-16.1-30.9-94.65-3.79-189.3-39.13-283.94-39.13s-189.29,35.34-283.94,39.13c-9,.36-16.11,14.12-16.11,30.9V697.51a69.53,69.53,0,0,0,.54,8.54c.14,33.78,26.53,61.11,59.06,61.11,27,0,49.72-18.8,56.79-44.49,61.22-11.47,122.44-26.25,183.66-26.25,61.5,0,123,14.92,184.51,26.41,7.12,25.6,29.82,44.33,56.74,44.33,32.63,0,59.08-27.48,59.08-61.39A63.22,63.22,0,0,0,799.85,699.28Z" transform="translate(-174.81 -118.32)"/><text class="cls-5" transform="translate(167.8 350.22)">Ranked</text><polygon class="cls-3" points="365.95 207.61 334.81 207.61 325.19 177.99 315.56 207.61 284.42 207.61 309.61 225.91 299.99 255.53 325.19 237.23 350.38 255.53 340.76 225.91 365.95 207.61"/><polygon class="cls-3" points="268.6 221.11 246.84 221.11 240.11 200.41 233.39 221.11 211.62 221.11 229.23 233.9 222.51 254.6 240.11 241.81 257.72 254.6 251 233.9 268.6 221.11"/><polygon class="cls-3" points="192.9 235.58 177.09 235.58 172.21 220.55 167.33 235.58 151.52 235.58 164.31 244.87 159.42 259.9 172.21 250.61 185 259.9 180.11 244.87 192.9 235.58"/><polygon class="cls-3" points="381.77 221.11 403.53 221.11 410.26 200.41 416.98 221.11 438.75 221.11 421.14 233.9 427.87 254.6 410.26 241.81 392.65 254.6 399.37 233.9 381.77 221.11"/><polygon class="cls-3" points="457.47 235.58 473.28 235.58 478.16 220.55 483.05 235.58 498.85 235.58 486.06 244.87 490.95 259.9 478.16 250.61 465.38 259.9 470.26 244.87 457.47 235.58"/><path class="cls-1" d="M499.91,436.4l.18-.16A1.18,1.18,0,0,0,499.91,436.4Z" transform="translate(-174.81 -118.32)"/><path class="cls-1" d="M256.86,675.12c-3,.94-4.27.16-4.32-2.57q-.72-35.44-1.43-70.88c-.06-2.73,1.22-4.36,4.19-5.31q19.76-6.3,39.74-11.56c18-4.68,23.82,1.63,24,12.43l.07,5c.09,6.14-1.53,10.9-6.55,14.08,8.79-1.23,14.66,3.33,14.79,12.52q.17,11.63.32,23.23c0,2.74-1.26,4.23-4.26,4.91q-9.3,2.12-18.56,4.44c-3,.75-4.32-.11-4.36-2.85q-.15-8.37-.28-16.75c-.05-3.28-1.27-4.41-4.62-3.53q-8.35,2.22-16.68,4.6.19,10.73.38,21.45c.05,2.74-1.23,4.31-4.2,5.18Q265.94,672.22,256.86,675.12Zm21.66-51.9q4.47-1.28,9-2.51c4.18-1.14,5.22-3.61,5.17-6.57l-.06-3.72c-.05-3-1.17-4.87-5.35-3.72-3,.82-6,1.65-9,2.51Z" transform="translate(-174.81 -118.32)"/><path class="cls-1" d="M376.82,648.43c-30.26,4.92-37.66-2.06-37.85-15.56q-.24-18.68-.49-37.36c-.16-13.24,7-24.35,37.52-29.31,30.51-4.59,38,4.22,38.06,17.47q.12,18.71.26,37.4C414.42,634.58,407.13,643.88,376.82,648.43Zm-.21-21.16c8.86-1.37,10.18-3.71,10.16-6.68q-.15-14.75-.28-29.5c0-2.84-1.39-4.88-10.28-3.51s-10.19,3.87-10.16,6.71q.15,14.75.32,29.49C366.4,626.75,367.88,628.66,376.61,627.27Z" transform="translate(-174.81 -118.32)"/><path class="cls-1" d="M454.71,638.46c-3.18.19-4.4-.94-4.42-3.68q0-7-.05-14-9.4-10.65-18.83-21.08c-3.81-4.17-4.69-6.27-4.73-13.08l-.12-21.06c0-2.74,1.32-4.08,4.39-4.34q9.45-.82,18.91-1.43c3.07-.19,4.43.94,4.44,3.68q0,9,.07,18a6.93,6.93,0,0,0,1.12,4.54l5.67,7.6c.86,1.28,1.6,1.79,2.95,1.73l1.22-.06c1.35-.06,2.09-.64,2.94-2l5.63-8.11a7.32,7.32,0,0,0,1.09-4.64q0-9,0-18c0-2.74,1.35-4,4.42-4.08q9.18-.24,18.34-.29c3.08,0,4.43,1.21,4.43,4v21.06c0,6.81-1,9-4.66,13.51q-9.33,11.34-18.61,22.9,0,7,0,13.94c0,2.74-1.33,4-4.39,4.08Q464.6,637.89,454.71,638.46Z" transform="translate(-174.81 -118.32)"/><path class="cls-1" d="M533.55,637.77q-9-.36-18-.52c-3.06,0-4.4-1.27-4.4-4q0-14.47,0-29c0-4.38,1.48-9.86,4.81-17.48q5.36-12.35,10.73-24.64c1-2.49,3-3.53,6.28-3.4q16.54.66,33.06,2c3.19.26,5.15,1.53,6.11,4.14q5.26,12.93,10.51,25.91c3.25,8,4.68,13.66,4.65,18.05l-.21,29c0,2.74-1.36,3.8-4.41,3.49q-9.19-.94-18.41-1.67c-3.29-.25-4.75-1.56-4.74-4.31q0-7.68.08-15.36-10.83-.78-21.65-1.28,0,7.68,0,15.36C538,636.76,536.61,637.9,533.55,637.77Zm5.74-39q9.63.45,19.24,1.14l-5.69-17.07c-.61-1.35-1.34-1.95-2.32-2l-3.07-.18c-1-.06-1.72.45-2.34,1.74Q542.2,590.53,539.29,598.74Z" transform="translate(-174.81 -118.32)"/><path class="cls-1" d="M606.45,644c-3-.4-4.37-1.77-4.34-4.51q.28-35.53.58-71.07c0-2.74,1.38-3.78,4.43-3.38q9.48,1.26,18.93,2.73c3.05.48,4.38,1.9,4.35,4.64l-.57,54.27q8.31,1.35,16.6,2.87l.21-17.76c0-2.74,1.38-3.7,4.4-3.13q8.79,1.65,17.53,3.51c3,.64,4.33,2.14,4.29,4.88l-.48,34.51c0,2.74-1.37,3.65-4.38,3Q637.39,648.13,606.45,644Z" transform="translate(-174.81 -118.32)"/><path class="cls-1" d="M690.31,659.68c-3-.72-4.29-2.23-4.25-5q.53-35.48,1.06-71c0-2.74,1.39-3.64,4.4-2.91q27.94,6.76,55.49,15.54c3,.95,4.24,2.58,4.19,5.31q-.13,6.41-.26,12.8c-.06,2.73-1.38,3.51-4.34,2.56q-16.35-5.21-32.85-9.71l-.15,8.43q11.65,3.18,23.23,6.71c3,.91,4.25,2.52,4.19,5.26-.07,3.9-.15,7.8-.22,11.7-.06,2.74-1.38,3.53-4.34,2.63q-11.57-3.54-23.19-6.7c-.06,3.13-.11,6.27-.17,9.41q16.46,4.49,32.76,9.68c2.95.95,4.22,2.58,4.17,5.31q-.13,6.39-.26,12.8c-.06,2.73-1.38,3.51-4.32,2.57Q718.09,666.41,690.31,659.68Z" transform="translate(-174.81 -118.32)"/></svg>